<svg id="Layer_1" data-name="Layer 1" xmlns="http://www.w3.org/2000/svg" width="1in" height="1in" viewBox="0 0 72 72"><title>brain-icon</title><path d="M43,11.7a1.4,1.4,0,1,0,0,2.8,1.4,1.4,0,0,0,0-2.8Z" fill="#a0c4ba"/><path d="M29,11.7a1.4,1.4,0,1,0,0,2.8,1.4,1.4,0,0,0,0-2.8Z" fill="#a0c4ba"/><path d="M66.5,42a11.1,11.1,0,0,0,1.8-6,10,10,0,0,0-3.5-7.6,8.9,8.9,0,0,0,.7-3.6,10.4,10.4,0,0,0-5.7-9.3,8.3,8.3,0,0,0-6.4-9.2,10,10,0,0,0-9-6.3A9.9,9.9,0,0,0,36,5.1,9.9,9.9,0,0,0,27.6,0a10,10,0,0,0-9,6.3,8.3,8.3,0,0,0-6.4,9.2,10.4,10.4,0,0,0-5.7,9.3,8.9,8.9,0,0,0,.7,3.6A10,10,0,0,0,3.7,36a11.1,11.1,0,0,0,1.8,6,9.9,9.9,0,0,0-1.8,5.7,9.4,9.4,0,0,0,2.9,6.9c-1,5.9,3.7,11.8,9.7,11.8h.1A11.5,11.5,0,0,0,26.2,72,11.3,11.3,0,0,0,36,65.9,11.3,11.3,0,0,0,45.8,72a11.5,11.5,0,0,0,9.8-5.6h.1c5.3,0,9.8-4.7,9.8-10.3a7.6,7.6,0,0,0-.1-1.5,9.4,9.4,0,0,0,2.9-6.9A9.9,9.9,0,0,0,66.5,42ZM34.6,21.3a5.4,5.4,0,0,0-2.8-.8,1.4,1.4,0,0,0-1.4,1.4,1.4,1.4,0,0,0,1.4,1.4,2.9,2.9,0,0,1,2.8,2.9V52.9a11.4,11.4,0,0,0-8.4-3.8,1.4,1.4,0,0,0,0,2.8,8.5,8.5,0,0,1,8.4,8.4c0,4.8-3.9,8.9-8.4,8.9a8.5,8.5,0,0,1-7.7-4.9,1.2,1.2,0,0,0-1.4-.8h-.3c-4,.6-8.5-4-7.3-9A1.4,1.4,0,0,0,9,53.1a7.2,7.2,0,0,1-2.5-5.4,6.3,6.3,0,0,1,1-3.6,10,10,0,0,0,6,2.2,1.4,1.4,0,0,0,1.4-1.4,1.4,1.4,0,0,0-1.4-1.4c-3.8,0-7-3.5-7-7.5a6.9,6.9,0,0,1,3.3-5.9,1.4,1.4,0,0,0,.4-1.9,7.2,7.2,0,0,1-.9-3.4c0-3.8,3.1-7.5,7-7.5s7,3.5,7,7.5a1.5,1.5,0,0,0,1.5,1.4,1.5,1.5,0,0,0,1.4-1.4,10.3,10.3,0,0,0-9.9-10.3H14.9a5.6,5.6,0,0,1,5.6-5.6,5.5,5.5,0,0,1,4,1.6,1.3,1.3,0,0,0,2,0,1.5,1.5,0,0,0,0-2,8.5,8.5,0,0,0-4.7-2.4,7.3,7.3,0,0,1,5.8-3.3c3.7,0,7,3.5,7,7.5Zm23.9,25a10,10,0,0,0,6-2.2,6.3,6.3,0,0,1,1,3.6A7.2,7.2,0,0,1,63,53.1a1.4,1.4,0,0,0-.5,1.4,10,10,0,0,1,.2,1.6c0,4.4-3.9,7.9-7.5,7.4h-.3a1.2,1.2,0,0,0-1.4.8,8.5,8.5,0,0,1-7.7,4.9c-4.5,0-8.4-4.1-8.4-8.9a8.5,8.5,0,0,1,8.4-8.4,1.4,1.4,0,1,0,0-2.8,11.4,11.4,0,0,0-8.4,3.8V26.2a2.9,2.9,0,0,1,2.8-2.9,1.4,1.4,0,0,0,1.4-1.4,1.4,1.4,0,0,0-1.4-1.4,5.4,5.4,0,0,0-2.8.8v-11c0-4,3.3-7.5,7-7.5a7.3,7.3,0,0,1,5.8,3.3,8.5,8.5,0,0,0-4.7,2.4,1.5,1.5,0,0,0,0,2,1.3,1.3,0,0,0,2,0,5.5,5.5,0,0,1,4-1.6,5.6,5.6,0,0,1,5.6,5.6H55.7a10.3,10.3,0,0,0-9.9,10.3,1.5,1.5,0,0,0,1.4,1.4,1.5,1.5,0,0,0,1.5-1.4c0-4,3.2-7.5,7-7.5s7,3.7,7,7.5a7.2,7.2,0,0,1-.9,3.4,1.4,1.4,0,0,0,.4,1.9A6.9,6.9,0,0,1,65.5,36c0,4-3.2,7.5-7,7.5a1.4,1.4,0,0,0-1.4,1.4A1.4,1.4,0,0,0,58.5,46.3Z" fill="#a0c4ba"/><path d="M31.4,30.1a1.4,1.4,0,0,0-2-.1,7,7,0,0,1-11.7-5.2,1.4,1.4,0,1,0-2.8,0,10,10,0,0,0,8.2,9.7,4.1,4.1,0,0,1-4,2.9,1.4,1.4,0,1,0,0,2.8A6.9,6.9,0,0,0,26,34.5a9.6,9.6,0,0,0,5.3-2.4A1.4,1.4,0,0,0,31.4,30.1Z" fill="#a0c4ba"/><path d="M16.3,54.7a1.4,1.4,0,0,0,0,2.8c3.8,0,7,3.5,7,7.5a1.5,1.5,0,0,0,1.5,1.4A1.5,1.5,0,0,0,26.2,65,10.3,10.3,0,0,0,16.3,54.7Z" fill="#a0c4ba"/><path d="M27.6,43.5a12.5,12.5,0,0,0-11,6.4,1.4,1.4,0,0,0,.5,1.9,1.4,1.4,0,0,0,1.9-.5,9.8,9.8,0,0,1,8.6-5A1.5,1.5,0,0,0,29,44.9,1.4,1.4,0,0,0,27.6,43.5Z" fill="#a0c4ba"/><path d="M52.9,37.4a4.1,4.1,0,0,1-4-2.9,10,10,0,0,0,8.2-9.7,1.4,1.4,0,1,0-2.8,0A7,7,0,0,1,42.6,30a1.4,1.4,0,1,0-1.9,2.1A9.6,9.6,0,0,0,46,34.5a6.9,6.9,0,0,0,6.9,5.7,1.4,1.4,0,0,0,0-2.8Z" fill="#a0c4ba"/><path d="M55.7,54.7A10.3,10.3,0,0,0,45.8,65a1.5,1.5,0,0,0,1.4,1.4A1.5,1.5,0,0,0,48.7,65c0-4,3.2-7.5,7-7.5a1.4,1.4,0,1,0,0-2.8Z" fill="#a0c4ba"/><path d="M55.4,49.9a12.5,12.5,0,0,0-11-6.4A1.4,1.4,0,0,0,43,44.9a1.5,1.5,0,0,0,1.4,1.4,9.8,9.8,0,0,1,8.6,5,1.4,1.4,0,0,0,1.9.5A1.4,1.4,0,0,0,55.4,49.9Z" fill="#a0c4ba"/></svg>