<svg xmlns="http://www.w3.org/2000/svg" id="Layer_1" width="96" height="96" viewBox="0 0 72 72"><path fill="#a0c4ba" d="M23.5 47.3h38.2a2.2 2.2 0 0 0 2.1-1.5l8.4-29.5a2.1 2.1 0 0 0-.4-1.9 2.1 2.1 0 0 0-1.6-.8H18.6l-1.5-6.8A2.1 2.1 0 0 0 15 5.1H2.4A2.1 2.1 0 0 0 .3 7.2a2.1 2.1 0 0 0 2.1 2.1h10.9L21 43.6a6.3 6.3 0 0 0-3.9 5.8 6.4 6.4 0 0 0 6.4 6.4h38.2a2.1 2.1 0 0 0 2.1-2.2 2.1 2.1 0 0 0-2.1-2.1H23.5a2.1 2.1 0 0 1-2.1-2.1 2.1 2.1 0 0 1 2.1-2.1zm43.9-29.5l-7.3 25.3H25.2l-5.7-25.3z"/><path fill="#a0c4ba" d="M21.4 62.1a6.3 6.3 0 1 0 6.3-6.3 6.3 6.3 0 0 0-6.3 6.3zm6.3-2.1a2.1 2.1 0 0 1 2.1 2.1 2.1 2.1 0 0 1-4.2 0 2.1 2.1 0 0 1 2.1-2.1zm23.5 2.1a6.3 6.3 0 1 0 6.3-6.3 6.3 6.3 0 0 0-6.3 6.3zm6.3-2.1a2.1 2.1 0 0 1 2.1 2.1 2.1 2.1 0 1 1-4.2 0 2.1 2.1 0 0 1 2.1-2.1z"/></svg>