<svg id="Layer_1" data-name="Layer 1" xmlns="http://www.w3.org/2000/svg" width="1in" height="1in" viewBox="0 0 72 72"><title>doctor-icon</title><path d="M51,33.8H43.5V26.3A1.5,1.5,0,0,0,42,24.8H30a1.5,1.5,0,0,0-1.5,1.5v7.5H21a1.5,1.5,0,0,0-1.5,1.5v12A1.5,1.5,0,0,0,21,48.8h7.5v7.5A1.5,1.5,0,0,0,30,57.8H42a1.5,1.5,0,0,0,1.5-1.5V48.8H51a1.5,1.5,0,0,0,1.5-1.5v-12A1.5,1.5,0,0,0,51,33.8Zm-1.5,12H42a1.5,1.5,0,0,0-1.5,1.5v7.5h-9V47.3A1.5,1.5,0,0,0,30,45.8H22.5v-9H30a1.5,1.5,0,0,0,1.5-1.5V27.8h9v7.5A1.5,1.5,0,0,0,42,36.8h7.5Z" fill="#a0c4ba"/><path d="M63.4,15.8H48V11.5a6.2,6.2,0,0,0-6.3-6.2H29.8c-3.4,0-5.8,2.6-5.8,6.2v4.3H8.6A8.6,8.6,0,0,0,0,24.4V58.1a8.8,8.8,0,0,0,8.6,8.7H63.4A8.8,8.8,0,0,0,72,58.1V24.4A8.6,8.6,0,0,0,63.4,15.8ZM27,11.5c0-1.6.9-3.2,2.8-3.2H41.7A3.2,3.2,0,0,1,45,11.5v4.3H27ZM69,58.1a5.7,5.7,0,0,1-5.6,5.7H8.6A5.7,5.7,0,0,1,3,58.1V24.4a5.6,5.6,0,0,1,5.6-5.6H63.4A5.6,5.6,0,0,1,69,24.4V58.1Z" fill="#a0c4ba"/></svg>