<svg id="Layer_1" data-name="Layer 1" xmlns="http://www.w3.org/2000/svg" width="1in" height="1in" viewBox="0 0 72 72"><title>energy-icon</title><path d="M36.2,8.4a7.9,7.9,0,0,0-.8-2.6,7.6,7.6,0,0,0-1.9-2.1c-1.6-1.2-4-1.8-7.1-1.4S18.8.5,18.3.2a1.2,1.2,0,0,0-1.5.2,1.2,1.2,0,0,0-.2.8c.7,6.4,2.2,10.8,4.1,13.5a9.5,9.5,0,0,0,4.5,3.7,7.5,7.5,0,0,0,4.9-.2l1.3-.7c0-.1-.1-.2-.2-.4a6.9,6.9,0,0,0-1.1-1.3l-.8.4a5,5,0,0,1-3.4.1,7.8,7.8,0,0,1-3.4-2.8C21,11.3,19.8,7.9,19.1,3a15.5,15.5,0,0,0,7.5,1.4c2.6-.2,4.4.2,5.6,1.1a4,4,0,0,1,1.3,1.3A4.1,4.1,0,0,1,34,8.6a3.7,3.7,0,0,1-.1,1.8,9.8,9.8,0,0,1,1.8,1.7A7.9,7.9,0,0,0,36.2,8.4Z" fill="#a0c4ba"/><path d="M46.4,11.2a1.1,1.1,0,0,0-1.5.3h0A8.7,8.7,0,0,1,41.7,14c-1.8,1-3.8,2.1-5.1,4.7-1.4-5.4-4.5-7.1-7.5-8.8a12.5,12.5,0,0,1-4.5-3.4,1.1,1.1,0,0,0-1.5-.3,1.1,1.1,0,0,0-.3,1.5A12.7,12.7,0,0,0,28,11.8c3.2,1.8,6.5,3.6,7.2,11.5h2.5c.7-5,2.9-6.2,5.1-7.4a11.4,11.4,0,0,0,3.9-3.1A1.2,1.2,0,0,0,46.4,11.2Z" fill="#a0c4ba"/><path d="M36.4,25.4A23.3,23.3,0,0,0,13.1,48.7,23.2,23.2,0,0,0,36.4,72a23.3,23.3,0,0,0,0-46.6ZM47.8,31a21.6,21.6,0,0,1,8.6,10.9,36.5,36.5,0,0,0-4.5-3.2C48.8,36.9,46.6,35.5,47.8,31ZM19.7,61.5a20.3,20.3,0,0,1-4.4-12.8,21,21,0,0,1,6.2-14.9c1,2.8,3,4.5,4.8,6.1s3.1,2.7,3.2,4.4-.8,2.3-1.7,3.4a11.4,11.4,0,0,0-2.6,4.7,12.9,12.9,0,0,0-.1,3.4c.1,1.8.2,4-.4,5.3S22.8,62.8,19.7,61.5Zm16.7,8.3h0l-2.6-.2A3.5,3.5,0,0,1,35,65.5c1-.7,3.6.1,6.4.9l4.4,1.2A21.6,21.6,0,0,1,36.4,69.8ZM49,65.6c-1.7.3-4.4-.5-7-1.2s-6.5-2-8.3-.6a5.3,5.3,0,0,0-2.3,5.4,20.2,20.2,0,0,1-8.9-4.7A3.9,3.9,0,0,0,26.7,62c.8-1.8.7-4.2.6-6.3a26.2,26.2,0,0,1,.1-2.8,8.6,8.6,0,0,1,2.2-3.8c1.1-1.4,2.1-2.7,2.1-4.8s-1.9-4.3-3.9-6.1-3.8-3.2-4.5-6a20.9,20.9,0,0,1,22.6-2.3c-2.1,6.4.8,8.2,4.8,10.7a22.2,22.2,0,0,1,6.6,5.6,22.9,22.9,0,0,1,.2,2.5A21.2,21.2,0,0,1,49,65.6Z" fill="#a0c4ba"/><path d="M50.4,6.6a1,1,0,0,0-.7.2,11,11,0,0,1-5.8,1.5,7.7,7.7,0,0,0-5.5,1.1A5.7,5.7,0,0,0,36.9,11a6.6,6.6,0,0,0-.6,2,7.4,7.4,0,0,0,.1,2.1,9.1,9.1,0,0,1,2.1-1.8h0a2.5,2.5,0,0,1,.4-1.2,2.4,2.4,0,0,1,.8-.9,5,5,0,0,1,3.9-.8,10.6,10.6,0,0,0,5.3-.8,17.6,17.6,0,0,1-2.4,7.1,5.2,5.2,0,0,1-2.4,2,3.7,3.7,0,0,1-1.8.1,8,8,0,0,0-1.5,1.7H41a5.5,5.5,0,0,0,3.8.2,7.2,7.2,0,0,0,3.5-2.9c1.4-2,2.6-5.3,3.1-10.1A1.2,1.2,0,0,0,50.4,6.6Z" fill="#a0c4ba"/></svg>