<svg xmlns="http://www.w3.org/2000/svg"><symbol id="moon-icon" viewBox="0 0 72 72"><path fill="#a0c4ba" d="M42.5 22.8a1.5 1.5 0 0 0-1.1-.4h-6.3l5.9-6.6.6-.6.2-.4.3-.4a1.3 1.3 0 0 0 .1-.6 1.1 1.1 0 0 0-.6-1 2.1 2.1 0 0 0-1.5-.3h-7.4a1.4 1.4 0 0 0-1.1.3 1 1 0 0 0-.4.9c0 .5.2.8.5.9a3.9 3.9 0 0 0 1.5.2H38l-.8 1-1.2 1.4-1.7 1.8-1.9 2.1-1.3 1.5a1.4 1.4 0 0 0 .1 2 2.3 2.3 0 0 0 1.4.4h8.8a1.5 1.5 0 0 0 1.1-.4 1 1 0 0 0 .4-.9 1.1 1.1 0 0 0-.4-.9zm13.3 7.7a1.4 1.4 0 0 0-.9-.3h-5l4.7-5.3.4-.5.3-.3a.8.8 0 0 0 .2-.4.6.6 0 0 0 .1-.4.8.8 0 0 0-.4-.9 1.9 1.9 0 0 0-1.3-.2H48a.9.9 0 0 0-.9.2 1.1 1.1 0 0 0-.3.7c0 .4.1.7.4.8h5a2.1 2.1 0 0 1-.6.8l-1 1.1-1.3 1.5-1.5 1.8-1.1 1.2a1.1 1.1 0 0 0 .2 1.5 1.9 1.9 0 0 0 1 .3h7a1.7 1.7 0 0 0 1-.3.8.8 0 0 0 .3-.7 1 1 0 0 0-.4-.6zM71.6 22a1.4 1.4 0 0 0-1.1-.3h-6.4L70 15l.6-.6.3-.4.3-.5a.7.7 0 0 0 .1-.5 1.3 1.3 0 0 0-.6-1.1 4 4 0 0 0-1.5-.3h-7.5a1.5 1.5 0 0 0-1.1.4.9.9 0 0 0-.4.8 1 1 0 0 0 .5 1l1.5.2H67l-.7.9-1.3 1.5-1.6 1.8-2 2.1a13.4 13.4 0 0 1-1.3 1.5 1.4 1.4 0 0 0 .2 2 2 2 0 0 0 1.3.4h8.8a2.4 2.4 0 0 0 1.2-.3 1.2 1.2 0 0 0 .4-.9 1.3 1.3 0 0 0-.4-1z"/><path fill="#a0c4ba" d="M66.4 47.4a1.4 1.4 0 0 0-1.6-.4 31.8 31.8 0 0 1-41.7-17.3A31.5 31.5 0 0 1 23.6 4a1.4 1.4 0 0 0-.7-2 1.3 1.3 0 0 0-1.2 0 35 35 0 1 0 26.6 64.7A35.3 35.3 0 0 0 66.7 49a1.4 1.4 0 0 0-.3-1.6zM35 66.3A32 32 0 0 1 19.4 6.4a34.3 34.3 0 0 0-1.8 11 35 35 0 0 0 35 35 34.7 34.7 0 0 0 9.6-1.3A32 32 0 0 1 35 66.3z"/></symbol><symbol id="brain-icon" viewBox="0 0 72 72"><path fill="#a0c4ba" d="M43 11.7a1.4 1.4 0 1 0 0 2.8 1.4 1.4 0 0 0 0-2.8zm-14 0a1.4 1.4 0 1 0 0 2.8 1.4 1.4 0 0 0 0-2.8z"/><path fill="#a0c4ba" d="M66.5 42a11.1 11.1 0 0 0 1.8-6 10 10 0 0 0-3.5-7.6 8.9 8.9 0 0 0 .7-3.6 10.4 10.4 0 0 0-5.7-9.3 8.3 8.3 0 0 0-6.4-9.2 10 10 0 0 0-9-6.3A9.9 9.9 0 0 0 36 5.1 9.9 9.9 0 0 0 27.6 0a10 10 0 0 0-9 6.3 8.3 8.3 0 0 0-6.4 9.2 10.4 10.4 0 0 0-5.7 9.3 8.9 8.9 0 0 0 .7 3.6A10 10 0 0 0 3.7 36a11.1 11.1 0 0 0 1.8 6 9.9 9.9 0 0 0-1.8 5.7 9.4 9.4 0 0 0 2.9 6.9c-1 5.9 3.7 11.8 9.7 11.8h.1a11.5 11.5 0 0 0 9.8 5.6 11.3 11.3 0 0 0 9.8-6.1 11.3 11.3 0 0 0 9.8 6.1 11.5 11.5 0 0 0 9.8-5.6h.1c5.3 0 9.8-4.7 9.8-10.3a7.6 7.6 0 0 0-.1-1.5 9.4 9.4 0 0 0 2.9-6.9 9.9 9.9 0 0 0-1.8-5.7zM34.6 21.3a5.4 5.4 0 0 0-2.8-.8 1.4 1.4 0 0 0-1.4 1.4 1.4 1.4 0 0 0 1.4 1.4 2.9 2.9 0 0 1 2.8 2.9v26.7a11.4 11.4 0 0 0-8.4-3.8 1.4 1.4 0 0 0 0 2.8 8.5 8.5 0 0 1 8.4 8.4c0 4.8-3.9 8.9-8.4 8.9a8.5 8.5 0 0 1-7.7-4.9 1.2 1.2 0 0 0-1.4-.8h-.3c-4 .6-8.5-4-7.3-9a1.4 1.4 0 0 0-.5-1.4 7.2 7.2 0 0 1-2.5-5.4 6.3 6.3 0 0 1 1-3.6 10 10 0 0 0 6 2.2 1.4 1.4 0 0 0 1.4-1.4 1.4 1.4 0 0 0-1.4-1.4c-3.8 0-7-3.5-7-7.5a6.9 6.9 0 0 1 3.3-5.9 1.4 1.4 0 0 0 .4-1.9 7.2 7.2 0 0 1-.9-3.4c0-3.8 3.1-7.5 7-7.5s7 3.5 7 7.5a1.5 1.5 0 0 0 1.5 1.4 1.5 1.5 0 0 0 1.4-1.4 10.3 10.3 0 0 0-9.9-10.3h-1.4a5.6 5.6 0 0 1 5.6-5.6 5.5 5.5 0 0 1 4 1.6 1.3 1.3 0 0 0 2 0 1.5 1.5 0 0 0 0-2 8.5 8.5 0 0 0-4.7-2.4 7.3 7.3 0 0 1 5.8-3.3c3.7 0 7 3.5 7 7.5zm23.9 25a10 10 0 0 0 6-2.2 6.3 6.3 0 0 1 1 3.6 7.2 7.2 0 0 1-2.5 5.4 1.4 1.4 0 0 0-.5 1.4 10 10 0 0 1 .2 1.6c0 4.4-3.9 7.9-7.5 7.4h-.3a1.2 1.2 0 0 0-1.4.8 8.5 8.5 0 0 1-7.7 4.9c-4.5 0-8.4-4.1-8.4-8.9a8.5 8.5 0 0 1 8.4-8.4 1.4 1.4 0 1 0 0-2.8 11.4 11.4 0 0 0-8.4 3.8V26.2a2.9 2.9 0 0 1 2.8-2.9 1.4 1.4 0 0 0 1.4-1.4 1.4 1.4 0 0 0-1.4-1.4 5.4 5.4 0 0 0-2.8.8v-11c0-4 3.3-7.5 7-7.5a7.3 7.3 0 0 1 5.8 3.3 8.5 8.5 0 0 0-4.7 2.4 1.5 1.5 0 0 0 0 2 1.3 1.3 0 0 0 2 0 5.5 5.5 0 0 1 4-1.6 5.6 5.6 0 0 1 5.6 5.6h-1.4a10.3 10.3 0 0 0-9.9 10.3 1.5 1.5 0 0 0 1.4 1.4 1.5 1.5 0 0 0 1.5-1.4c0-4 3.2-7.5 7-7.5s7 3.7 7 7.5a7.2 7.2 0 0 1-.9 3.4 1.4 1.4 0 0 0 .4 1.9 6.9 6.9 0 0 1 3.3 5.9c0 4-3.2 7.5-7 7.5a1.4 1.4 0 0 0-1.4 1.4 1.4 1.4 0 0 0 1.4 1.4z"/><path fill="#a0c4ba" d="M31.4 30.1a1.4 1.4 0 0 0-2-.1 7 7 0 0 1-11.7-5.2 1.4 1.4 0 1 0-2.8 0 10 10 0 0 0 8.2 9.7 4.1 4.1 0 0 1-4 2.9 1.4 1.4 0 1 0 0 2.8 6.9 6.9 0 0 0 6.9-5.7 9.6 9.6 0 0 0 5.3-2.4 1.4 1.4 0 0 0 .1-2zM16.3 54.7a1.4 1.4 0 0 0 0 2.8c3.8 0 7 3.5 7 7.5a1.5 1.5 0 0 0 1.5 1.4 1.5 1.5 0 0 0 1.4-1.4 10.3 10.3 0 0 0-9.9-10.3zm11.3-11.2a12.5 12.5 0 0 0-11 6.4 1.4 1.4 0 0 0 .5 1.9 1.4 1.4 0 0 0 1.9-.5 9.8 9.8 0 0 1 8.6-5 1.5 1.5 0 0 0 1.4-1.4 1.4 1.4 0 0 0-1.4-1.4zm25.3-6.1a4.1 4.1 0 0 1-4-2.9 10 10 0 0 0 8.2-9.7 1.4 1.4 0 1 0-2.8 0A7 7 0 0 1 42.6 30a1.4 1.4 0 1 0-1.9 2.1 9.6 9.6 0 0 0 5.3 2.4 6.9 6.9 0 0 0 6.9 5.7 1.4 1.4 0 0 0 0-2.8zm2.8 17.3A10.3 10.3 0 0 0 45.8 65a1.5 1.5 0 0 0 1.4 1.4 1.5 1.5 0 0 0 1.5-1.4c0-4 3.2-7.5 7-7.5a1.4 1.4 0 1 0 0-2.8zm-.3-4.8a12.5 12.5 0 0 0-11-6.4 1.4 1.4 0 0 0-1.4 1.4 1.5 1.5 0 0 0 1.4 1.4 9.8 9.8 0 0 1 8.6 5 1.4 1.4 0 0 0 1.9.5 1.4 1.4 0 0 0 .5-1.9z"/></symbol><symbol id="doctor-icon" viewBox="0 0 72 72"><path fill="#a0c4ba" d="M51 33.8h-7.5v-7.5a1.5 1.5 0 0 0-1.5-1.5H30a1.5 1.5 0 0 0-1.5 1.5v7.5H21a1.5 1.5 0 0 0-1.5 1.5v12a1.5 1.5 0 0 0 1.5 1.5h7.5v7.5a1.5 1.5 0 0 0 1.5 1.5h12a1.5 1.5 0 0 0 1.5-1.5v-7.5H51a1.5 1.5 0 0 0 1.5-1.5v-12a1.5 1.5 0 0 0-1.5-1.5zm-1.5 12H42a1.5 1.5 0 0 0-1.5 1.5v7.5h-9v-7.5a1.5 1.5 0 0 0-1.5-1.5h-7.5v-9H30a1.5 1.5 0 0 0 1.5-1.5v-7.5h9v7.5a1.5 1.5 0 0 0 1.5 1.5h7.5z"/><path fill="#a0c4ba" d="M63.4 15.8H48v-4.3a6.2 6.2 0 0 0-6.3-6.2H29.8c-3.4 0-5.8 2.6-5.8 6.2v4.3H8.6A8.6 8.6 0 0 0 0 24.4v33.7a8.8 8.8 0 0 0 8.6 8.7h54.8a8.8 8.8 0 0 0 8.6-8.7V24.4a8.6 8.6 0 0 0-8.6-8.6zM27 11.5c0-1.6.9-3.2 2.8-3.2h11.9a3.2 3.2 0 0 1 3.3 3.2v4.3H27zm42 46.6a5.7 5.7 0 0 1-5.6 5.7H8.6A5.7 5.7 0 0 1 3 58.1V24.4a5.6 5.6 0 0 1 5.6-5.6h54.8a5.6 5.6 0 0 1 5.6 5.6v33.7z"/></symbol><symbol id="energy-icon" viewBox="0 0 72 72"><path fill="#a0c4ba" d="M36.2 8.4a7.9 7.9 0 0 0-.8-2.6 7.6 7.6 0 0 0-1.9-2.1c-1.6-1.2-4-1.8-7.1-1.4S18.8.5 18.3.2a1.2 1.2 0 0 0-1.5.2 1.2 1.2 0 0 0-.2.8c.7 6.4 2.2 10.8 4.1 13.5a9.5 9.5 0 0 0 4.5 3.7 7.5 7.5 0 0 0 4.9-.2l1.3-.7c0-.1-.1-.2-.2-.4a6.9 6.9 0 0 0-1.1-1.3l-.8.4a5 5 0 0 1-3.4.1 7.8 7.8 0 0 1-3.4-2.8C21 11.3 19.8 7.9 19.1 3a15.5 15.5 0 0 0 7.5 1.4c2.6-.2 4.4.2 5.6 1.1a4 4 0 0 1 1.3 1.3 4.1 4.1 0 0 1 .5 1.8 3.7 3.7 0 0 1-.1 1.8 9.8 9.8 0 0 1 1.8 1.7 7.9 7.9 0 0 0 .5-3.7z"/><path fill="#a0c4ba" d="M46.4 11.2a1.1 1.1 0 0 0-1.5.3 8.7 8.7 0 0 1-3.2 2.5c-1.8 1-3.8 2.1-5.1 4.7-1.4-5.4-4.5-7.1-7.5-8.8a12.5 12.5 0 0 1-4.5-3.4 1.1 1.1 0 0 0-1.5-.3 1.1 1.1 0 0 0-.3 1.5 12.7 12.7 0 0 0 5.2 4.1c3.2 1.8 6.5 3.6 7.2 11.5h2.5c.7-5 2.9-6.2 5.1-7.4a11.4 11.4 0 0 0 3.9-3.1 1.2 1.2 0 0 0-.3-1.6zm-10 14.2a23.3 23.3 0 0 0-23.3 23.3A23.2 23.2 0 0 0 36.4 72a23.3 23.3 0 0 0 0-46.6zM47.8 31a21.6 21.6 0 0 1 8.6 10.9 36.5 36.5 0 0 0-4.5-3.2c-3.1-1.8-5.3-3.2-4.1-7.7zM19.7 61.5a20.3 20.3 0 0 1-4.4-12.8 21 21 0 0 1 6.2-14.9c1 2.8 3 4.5 4.8 6.1s3.1 2.7 3.2 4.4-.8 2.3-1.7 3.4a11.4 11.4 0 0 0-2.6 4.7 12.9 12.9 0 0 0-.1 3.4c.1 1.8.2 4-.4 5.3s-1.9 1.7-5 .4zm16.7 8.3l-2.6-.2a3.5 3.5 0 0 1 1.2-4.1c1-.7 3.6.1 6.4.9l4.4 1.2a21.6 21.6 0 0 1-9.4 2.2zM49 65.6c-1.7.3-4.4-.5-7-1.2s-6.5-2-8.3-.6a5.3 5.3 0 0 0-2.3 5.4 20.2 20.2 0 0 1-8.9-4.7 3.9 3.9 0 0 0 4.2-2.5c.8-1.8.7-4.2.6-6.3a26.2 26.2 0 0 1 .1-2.8 8.6 8.6 0 0 1 2.2-3.8c1.1-1.4 2.1-2.7 2.1-4.8s-1.9-4.3-3.9-6.1-3.8-3.2-4.5-6a20.9 20.9 0 0 1 22.6-2.3c-2.1 6.4.8 8.2 4.8 10.7a22.2 22.2 0 0 1 6.6 5.6 22.9 22.9 0 0 1 .2 2.5A21.2 21.2 0 0 1 49 65.6z"/><path fill="#a0c4ba" d="M50.4 6.6a1 1 0 0 0-.7.2 11 11 0 0 1-5.8 1.5 7.7 7.7 0 0 0-5.5 1.1 5.7 5.7 0 0 0-1.5 1.6 6.6 6.6 0 0 0-.6 2 7.4 7.4 0 0 0 .1 2.1 9.1 9.1 0 0 1 2.1-1.8 2.5 2.5 0 0 1 .4-1.2 2.4 2.4 0 0 1 .8-.9 5 5 0 0 1 3.9-.8 10.6 10.6 0 0 0 5.3-.8 17.6 17.6 0 0 1-2.4 7.1 5.2 5.2 0 0 1-2.4 2 3.7 3.7 0 0 1-1.8.1 8 8 0 0 0-1.5 1.7h.2a5.5 5.5 0 0 0 3.8.2 7.2 7.2 0 0 0 3.5-2.9c1.4-2 2.6-5.3 3.1-10.1a1.2 1.2 0 0 0-1-1.1z"/></symbol><symbol id="lung-icon" viewBox="0 0 72 72"><path fill="#a0c4ba" d="M54.2 62.9h-3.8a8.4 8.4 0 0 1-8.4-9.2l.6-10.3 1.2.6a14.8 14.8 0 0 0 3.2 1.3c.1 2.1 1 5.2 4.2 5.9a1 1 0 1 0 .4-2c-1.7-.4-2.3-2.2-2.4-3.4a14.7 14.7 0 0 0 2.6.3 1.1 1.1 0 0 0 0-2.2c-4.8 0-9.3-2.5-12.7-6.1a4.4 4.4 0 0 0-6.3 0c-6.2 6.6-12.6 6.1-12.8 6.1a1.1 1.1 0 0 0 0 2.2 14.7 14.7 0 0 0 2.6-.3c-.2 1.2-.7 3-2.5 3.4a1 1 0 1 0 .5 2c3.1-.7 4.1-3.8 4.2-5.8l2.5-1 2.1-1.1c.8 12.2.6 10.2.7 10.4a8.5 8.5 0 0 1-8.5 9.2h-3.4a1.1 1.1 0 0 0 0 2.2h3.4a10.6 10.6 0 0 0 10.6-11.5l-.8-11.7a24.4 24.4 0 0 0 2.9-2.7 2.3 2.3 0 0 1 1.6-.6c1.6 0 1.4.9 4.7 3.4l-.8 11.6a10.8 10.8 0 0 0 10.6 11.5h3.8a1.1 1.1 0 0 0 0-2.2z"/><path fill="#a0c4ba" d="M71.9 60.5c-2.2-16.5-4.3-32-14.5-38.8a8.1 8.1 0 0 0-4.6-1.4c-4.2 0-10.7 3.2-11.1 7.6l-.2 2.8a5.1 5.1 0 0 1-1.3-3.3V3.7a1.1 1.1 0 0 0-2.2 0v23.7a6.4 6.4 0 0 0 1 3.3 26.5 26.5 0 0 0 2.5 3.5 19.3 19.3 0 0 0 4.7 3.9l.3.2h.3a11.4 11.4 0 0 0 5.1 1.3h.4l.3-.2a1 1 0 0 0-.7-1.8l-1.5-.2a5.8 5.8 0 0 0 2.4-3.6 1 1 0 0 0-.7-1.3 1.1 1.1 0 0 0-1.3.8 4 4 0 0 1-3.4 3.1 20.8 20.8 0 0 1-4-3.2l.4-5.1c.3-3.1 5.7-5.7 9-5.7a6.5 6.5 0 0 1 3.4 1c9.5 6.3 11.5 21.4 13.6 37.4v.2a2.3 2.3 0 0 1-.4 1.4 2.1 2.1 0 0 1-1.3.5h-9.3a1.1 1.1 0 0 0 0 2.2h9.4a4.1 4.1 0 0 0 2.9-1.3 4.3 4.3 0 0 0 .9-3zM15.8 23.4a6.5 6.5 0 0 1 3.4-1c3.3 0 8.7 2.6 9 5.7l.4 4.9-1.2 1.1a8.3 8.3 0 0 1-2.1 1.7l-.9.6a4.1 4.1 0 0 1-3.4-3.1 1.1 1.1 0 0 0-2.1.5 6.3 6.3 0 0 0 2.5 3.6l-1.5.2a1.1 1.1 0 0 0-.7 1.8h.3l.5.2a13.9 13.9 0 0 0 5.3-1.4 21.3 21.3 0 0 0 7.6-7.6 6.3 6.3 0 0 0 .9-3.3V3.7a1.1 1.1 0 0 0-1-1.1 1.1 1.1 0 0 0-1.1 1.1v23.7a5 5 0 0 1-1.2 3l-.2-2.5c-.4-4.4-6.9-7.6-11.1-7.6a8.1 8.1 0 0 0-4.6 1.4C3.7 28.9 1.9 46.7 0 60.8a3.9 3.9 0 0 0 3.8 4.3h8.4a1.1 1.1 0 0 0 0-2.2H3.8a2.1 2.1 0 0 1-1.3-.5 1.8 1.8 0 0 1-.3-1.6c2.1-16 4.1-31.1 13.6-37.4z"/></symbol><symbol id="cart-icon" viewBox="0 0 72 72"><path fill="#a0c4ba" d="M23.5 47.3h38.2a2.2 2.2 0 0 0 2.1-1.5l8.4-29.5a2.1 2.1 0 0 0-.4-1.9 2.1 2.1 0 0 0-1.6-.8H18.6l-1.5-6.8A2.1 2.1 0 0 0 15 5.1H2.4A2.1 2.1 0 0 0 .3 7.2a2.1 2.1 0 0 0 2.1 2.1h10.9L21 43.6a6.3 6.3 0 0 0-3.9 5.8 6.4 6.4 0 0 0 6.4 6.4h38.2a2.1 2.1 0 0 0 2.1-2.2 2.1 2.1 0 0 0-2.1-2.1H23.5a2.1 2.1 0 0 1-2.1-2.1 2.1 2.1 0 0 1 2.1-2.1zm43.9-29.5l-7.3 25.3H25.2l-5.7-25.3z"/><path fill="#a0c4ba" d="M21.4 62.1a6.3 6.3 0 1 0 6.3-6.3 6.3 6.3 0 0 0-6.3 6.3zm6.3-2.1a2.1 2.1 0 0 1 2.1 2.1 2.1 2.1 0 0 1-4.2 0 2.1 2.1 0 0 1 2.1-2.1zm23.5 2.1a6.3 6.3 0 1 0 6.3-6.3 6.3 6.3 0 0 0-6.3 6.3zm6.3-2.1a2.1 2.1 0 0 1 2.1 2.1 2.1 2.1 0 1 1-4.2 0 2.1 2.1 0 0 1 2.1-2.1z"/></symbol></svg>