<svg xmlns="http://www.w3.org/2000/svg" width="32" height="32" viewBox="0 0 32 32"><path fill="#63a293" d="M16 32s-24.3-7.7 0-32c0 0 18.7 23.7 0 32z"/><path fill="#c3d9d3" d="M16 32V0s23 22.5 0 32z"/><path fill="#fff" d="M16 32l-.6-3.2-.6-3.2-1.2-6.4c-.4-2.1-.8-4.2-1.3-6.3l-.9-3.1A7.4 7.4 0 0 0 10 7a7.6 7.6 0 0 1 1.8 2.6 19.8 19.8 0 0 1 1.2 3.1 46.1 46.1 0 0 1 1.6 6.4c.4 2.1.7 4.2.9 6.4A47.4 47.4 0 0 1 16 32zm0 0l-4.4-9.2c-.7-1.5-1.5-2.9-2.3-4.4a14.9 14.9 0 0 0-1.5-2A5.8 5.8 0 0 0 6 14.7 7.1 7.1 0 0 1 8.2 16a16.3 16.3 0 0 1 1.7 2 28.2 28.2 0 0 1 2.6 4.4A48.1 48.1 0 0 1 16 32z"/><path fill="#63a293" d="M16 32a46.2 46.2 0 0 1 3.2-9.5 23 23 0 0 1 2.5-4.3 7.7 7.7 0 0 1 1.7-1.9 4.6 4.6 0 0 1 2.1-1.3 5.5 5.5 0 0 0-1.8 1.6 13.7 13.7 0 0 0-1.3 2 36.8 36.8 0 0 0-2.3 4.4c-1.4 2.9-2.7 6-4.1 9z"/><path fill="#63a293" d="M16 32c0-2.2.2-4.3.4-6.5s.5-4.3.8-6.4.9-4.3 1.5-6.4.7-2 1.1-3A7.4 7.4 0 0 1 21.7 7a7.4 7.4 0 0 0-1.4 2.8c-.3 1-.6 2.1-.8 3.1s-.9 4.2-1.3 6.3l-1.1 6.4-.5 3.2z"/></svg>