<svg id="Layer_1" data-name="Layer 1" xmlns="http://www.w3.org/2000/svg" width="1in" height="1in" viewBox="0 0 72 72"><title>lung-icon</title><path d="M54.2,62.9H50.4A8.4,8.4,0,0,1,42,53.7l.6-10.3,1.2.6A14.8,14.8,0,0,0,47,45.3c.1,2.1,1,5.2,4.2,5.9a1,1,0,1,0,.4-2c-1.7-.4-2.3-2.2-2.4-3.4a14.7,14.7,0,0,0,2.6.3,1.1,1.1,0,0,0,0-2.2h0c-4.8,0-9.3-2.5-12.7-6.1a4.4,4.4,0,0,0-6.3,0c-6.2,6.6-12.6,6.1-12.8,6.1a1.1,1.1,0,0,0,0,2.2,14.7,14.7,0,0,0,2.6-.3c-.2,1.2-.7,3-2.5,3.4a1,1,0,1,0,.5,2c3.1-.7,4.1-3.8,4.2-5.8l2.5-1,2.1-1.1c.8,12.2.6,10.2.7,10.4a8.5,8.5,0,0,1-8.5,9.2H18.2a1.1,1.1,0,0,0,0,2.2h3.4A10.6,10.6,0,0,0,32.2,53.6l-.8-11.7a24.4,24.4,0,0,0,2.9-2.7,2.3,2.3,0,0,1,1.6-.6c1.6,0,1.4.9,4.7,3.4l-.8,11.6A10.8,10.8,0,0,0,50.4,65.1h3.8a1.1,1.1,0,0,0,0-2.2Z" fill="#a0c4ba"/><path d="M71.9,60.5c-2.2-16.5-4.3-32-14.5-38.8a8.1,8.1,0,0,0-4.6-1.4c-4.2,0-10.7,3.2-11.1,7.6l-.2,2.8a5.1,5.1,0,0,1-1.3-3.3V3.7a1.1,1.1,0,0,0-2.2,0V27.4a6.4,6.4,0,0,0,1,3.3,26.5,26.5,0,0,0,2.5,3.5,19.3,19.3,0,0,0,4.7,3.9l.3.2h.3a11.4,11.4,0,0,0,5.1,1.3h.4l.3-.2a1,1,0,0,0-.7-1.8l-1.5-.2a5.8,5.8,0,0,0,2.4-3.6,1,1,0,0,0-.7-1.3,1.1,1.1,0,0,0-1.3.8,4,4,0,0,1-3.4,3.1,20.8,20.8,0,0,1-4-3.2l.4-5.1c.3-3.1,5.7-5.7,9-5.7a6.5,6.5,0,0,1,3.4,1c9.5,6.3,11.5,21.4,13.6,37.4V61a2.3,2.3,0,0,1-.4,1.4,2.1,2.1,0,0,1-1.3.5H58.8a1.1,1.1,0,0,0,0,2.2h9.4a4.1,4.1,0,0,0,2.9-1.3,4.3,4.3,0,0,0,.9-3Z" fill="#a0c4ba"/><path d="M15.8,23.4a6.5,6.5,0,0,1,3.4-1c3.3,0,8.7,2.6,9,5.7l.4,4.9-1.2,1.1a8.3,8.3,0,0,1-2.1,1.7l-.9.6A4.1,4.1,0,0,1,21,33.3a1.1,1.1,0,0,0-2.1.5,6.3,6.3,0,0,0,2.5,3.6l-1.5.2a1.1,1.1,0,0,0-.7,1.8h.3l.5.2a13.9,13.9,0,0,0,5.3-1.4,21.3,21.3,0,0,0,7.6-7.6,6.3,6.3,0,0,0,.9-3.3V3.7a1.1,1.1,0,0,0-1-1.1,1.1,1.1,0,0,0-1.1,1.1V27.4a5,5,0,0,1-1.2,3l-.2-2.5c-.4-4.4-6.9-7.6-11.1-7.6a8.1,8.1,0,0,0-4.6,1.4C3.7,28.9,1.9,46.7,0,60.8a3.9,3.9,0,0,0,3.8,4.3h8.4a1.1,1.1,0,0,0,0-2.2H3.8a2.1,2.1,0,0,1-1.3-.5,1.8,1.8,0,0,1-.3-1.6C4.3,44.8,6.3,29.7,15.8,23.4Z" fill="#a0c4ba"/></svg>