<svg id="Layer_1" data-name="Layer 1" xmlns="http://www.w3.org/2000/svg" width="1in" height="1in" viewBox="0 0 72 72"><title>moon-icon</title><path d="M42.5,23.2a1.4,1.4,0,0,0-1.1-.3H35.1L41,16.2l.6-.6.2-.3.3-.5a.9.9,0,0,0,.1-.5,1.1,1.1,0,0,0-.6-1.1l-1.5-.3H32.7a2,2,0,0,0-1.1.3,1.1,1.1,0,0,0-.4.9c0,.5.2.8.5.9a3.9,3.9,0,0,0,1.5.2H38a5.8,5.8,0,0,1-.8,1L36,17.6l-1.7,1.8-1.9,2.2a10.7,10.7,0,0,0-1.3,1.5,1.3,1.3,0,0,0,.1,1.9,2.3,2.3,0,0,0,1.4.4h8.8a2,2,0,0,0,1.1-.3,1.2,1.2,0,0,0,.4-.9A1.3,1.3,0,0,0,42.5,23.2Z" fill="#a0c4ba"/><path d="M55.8,30.9a1.4,1.4,0,0,0-.9-.3h-5l4.7-5.3.4-.5.3-.3a.5.5,0,0,0,.2-.4c.1-.1.1-.2.1-.4a.9.9,0,0,0-.4-.9,2.7,2.7,0,0,0-1.3-.2H48a1.2,1.2,0,0,0-.9.3.8.8,0,0,0-.3.7c0,.4.1.6.4.7l1.2.2h3.8l-.6.7-1,1.2-1.3,1.5-1.5,1.7-1.1,1.2a1.1,1.1,0,0,0,.2,1.5,1.3,1.3,0,0,0,1,.3h7a1.2,1.2,0,0,0,1-.2,1.1,1.1,0,0,0,.3-.7A1.2,1.2,0,0,0,55.8,30.9Z" fill="#a0c4ba"/><path d="M71.6,22.5a1.5,1.5,0,0,0-1.1-.4H64.1L70,15.5l.6-.6.3-.5.3-.4a1.3,1.3,0,0,0,.1-.6,1.1,1.1,0,0,0-.6-1,2.1,2.1,0,0,0-1.5-.3H61.7a1.1,1.1,0,0,0-1.1.3,1,1,0,0,0-.4.9c0,.5.2.8.5.9l1.5.2H67l-.7,1L65,16.8l-1.6,1.8-2,2.1a13.4,13.4,0,0,1-1.3,1.5,1.4,1.4,0,0,0,.2,2,2,2,0,0,0,1.3.4h8.8a2.4,2.4,0,0,0,1.2-.3,1.1,1.1,0,0,0,.4-.9A1,1,0,0,0,71.6,22.5Z" fill="#a0c4ba"/><path d="M66.4,47.8a1.4,1.4,0,0,0-1.6-.4A31.8,31.8,0,0,1,23.1,30.1a31.5,31.5,0,0,1,.5-25.7,1.4,1.4,0,0,0-.7-2,1.3,1.3,0,0,0-1.2,0A35,35,0,1,0,48.3,67.1,35.5,35.5,0,0,0,66.7,49.5,1.5,1.5,0,0,0,66.4,47.8ZM35,66.7A32,32,0,0,1,19.4,6.8a34.9,34.9,0,0,0,33.2,46,34.7,34.7,0,0,0,9.6-1.3A32,32,0,0,1,35,66.7Z" fill="#a0c4ba"/></svg>